<svg xmlns="http://www.w3.org/2000/svg" viewBox="0 0 255.91 120.2"><defs><style>.cls-1{fill:#fff;}.cls-2{fill:#02a9e0;}</style></defs><g id="Layer_2" data-name="Layer 2"><g id="Content"><path class="cls-1" d="M79.86,46.49a6.23,6.23,0,1,0-9-8.66L58.59,50.57A10.52,10.52,0,0,0,56,54.94a10.46,10.46,0,0,0-2.54-4.36L41.2,37.83a6.24,6.24,0,0,0-9,8.66l10.52,11a5.72,5.72,0,0,1,1.22,3l0,.24c0,1.2,0,13.65,0,20.31a6.24,6.24,0,0,0,12,2.29A6.24,6.24,0,0,0,68.09,81c0-6.67,0-19.15,0-20.31l0-.24a5.72,5.72,0,0,1,1.22-3L79.79,46.56Z"/><path class="cls-1" d="M188.55,39.21A24,24,0,0,0,166,71.43a6.5,6.5,0,0,0-1.07-1.19h0c-3.34-2.91-7.23-1.22-9,.63l-.05.06a11.55,11.55,0,0,1-17,.06,11.51,11.51,0,0,1,17-15.55,6.79,6.79,0,0,0,1.91,1.49A6.09,6.09,0,0,0,164.8,56a5.82,5.82,0,0,0,1.65-6.58,7.93,7.93,0,0,0-1.73-2.73A24.05,24.05,0,0,0,124,57.1a24,24,0,1,0,0,12.2,24.05,24.05,0,0,0,41.08,10l0-.06a7.22,7.22,0,0,0,1.67-5.76,24,24,0,1,0,21.72-34.24ZM100.8,74.69A11.5,11.5,0,1,1,112.32,63.2,11.52,11.52,0,0,1,100.8,74.69Zm87.75,0A11.5,11.5,0,1,1,200.07,63.2,11.51,11.51,0,0,1,188.55,74.69Z"/><path class="cls-2" d="M188.55,49.28A13.92,13.92,0,1,0,202.49,63.2,13.94,13.94,0,0,0,188.55,49.28Z"/><path class="cls-2" d="M100.8,49.28A13.92,13.92,0,1,0,114.74,63.2,13.95,13.95,0,0,0,100.8,49.28Z"/><path class="cls-2" d="M186.65,6H57.1A57.11,57.11,0,0,0,0,63.1H0a57.1,57.1,0,0,0,57.1,57.1H186.65a57.1,57.1,0,0,0,57.11-57.1h0A57.11,57.11,0,0,0,186.65,6ZM50.23,84.78A3.81,3.81,0,0,1,46.42,81s0-20.24,0-20.42l0-.37a8.26,8.26,0,0,0-1.81-4.32L34,44.87,34,44.81a3.82,3.82,0,1,1,5.49-5.3l12.3,12.75A8.19,8.19,0,0,1,54.06,58V80.94h0v0A3.83,3.83,0,0,1,50.23,84.78Zm27.89-40-.07.06-10.52,11a8.1,8.1,0,0,0-1.81,4.32l0,.37c0,.18,0,20.42,0,20.42A3.83,3.83,0,0,1,58,81v0h0V58a8.2,8.2,0,0,1,2.31-5.76l12.3-12.75a3.82,3.82,0,1,1,5.49,5.3Zm22.68,40A21.57,21.57,0,1,1,122.4,63.2,21.61,21.61,0,0,1,100.8,84.76Zm62.51-7.12A21.56,21.56,0,1,1,163,48.37a5.54,5.54,0,0,1,1.2,1.88,3.41,3.41,0,0,1-1,4,3.73,3.73,0,0,1-4.42.56,4.44,4.44,0,0,1-1.23-1,13.91,13.91,0,1,0,0,18.75s2.88-3,5.71-.49S163.31,77.64,163.31,77.64Zm25.24,7.12A21.57,21.57,0,1,1,210.17,63.2,21.61,21.61,0,0,1,188.55,84.76Z"/><path class="cls-2" d="M245.28,0a10.63,10.63,0,1,0,10.63,10.63A10.64,10.64,0,0,0,245.28,0Zm0,20.11a9.49,9.49,0,1,1,9.49-9.48A9.5,9.5,0,0,1,245.28,20.11Z"/><path class="cls-2" d="M246.94,11a2.5,2.5,0,0,0,1.8-2.49,2.47,2.47,0,0,0-.79-1.9,3,3,0,0,0-2.07-.72h-3.3c-.09,0-.13,0-.13.13v8.85c0,.09,0,.13.13.13h.93c.09,0,.13,0,.13-.13V11.2a.07.07,0,0,1,.08-.08h2l1.82,3.73c0,.09.09.13.17.13h1.08a.1.1,0,0,0,.08-.16Zm-3.22-1a.07.07,0,0,1-.08-.08V7.06a.07.07,0,0,1,.08-.08h2.14c1.06,0,1.69.56,1.69,1.51S246.92,10,245.86,10Z"/></g></g></svg>